<svg width="155" height="40" viewBox="0 0 155 40" fill="none" xmlns="http://www.w3.org/2000/svg">
<g opacity="0.8">
<path d="M0 4.09207C0 1.88293 1.79086 0.0920715 4 0.0920715H151C153.209 0.0920715 155 1.88293 155 4.09207V35.0921C155 37.3012 153.209 39.0921 151 39.0921H4C1.79086 39.0921 0 37.3012 0 35.0921V4.09207Z" fill="#FF7500"/>
<path d="M28.2466 20.7088H26.7295V24.0921H24.8252V14.8499H28.2593C29.3511 14.8499 30.1932 15.0932 30.7856 15.5799C31.3781 16.0665 31.6743 16.7542 31.6743 17.6429C31.6743 18.2734 31.5368 18.8002 31.2617 19.2234C30.9909 19.6424 30.5783 19.9767 30.0239 20.2263L32.0234 24.0032V24.0921H29.9795L28.2466 20.7088ZM26.7295 19.1663H28.2656C28.7438 19.1663 29.1141 19.0457 29.3765 18.8045C29.6388 18.559 29.77 18.2226 29.77 17.7952C29.77 17.3593 29.6452 17.0166 29.3955 16.7669C29.1501 16.5172 28.7713 16.3924 28.2593 16.3924H26.7295V19.1663ZM33.2217 20.5945C33.2217 19.9132 33.3529 19.3059 33.6152 18.7727C33.8776 18.2395 34.2542 17.8269 34.7451 17.5349C35.2402 17.243 35.8136 17.097 36.4653 17.097C37.3921 17.097 38.1475 17.3805 38.7314 17.9475C39.3197 18.5146 39.6476 19.2848 39.7153 20.2581L39.728 20.7278C39.728 21.7815 39.4339 22.6279 38.8457 23.2669C38.2575 23.9016 37.4683 24.219 36.478 24.219C35.4878 24.219 34.6965 23.9016 34.104 23.2669C33.5158 22.6321 33.2217 21.7688 33.2217 20.677V20.5945ZM35.0562 20.7278C35.0562 21.3795 35.1789 21.8789 35.4243 22.2259C35.6698 22.5686 36.021 22.74 36.478 22.74C36.9224 22.74 37.2694 22.5707 37.519 22.2322C37.7687 21.8894 37.8936 21.3435 37.8936 20.5945C37.8936 19.9555 37.7687 19.4604 37.519 19.1092C37.2694 18.7579 36.9181 18.5823 36.4653 18.5823C36.0168 18.5823 35.6698 18.7579 35.4243 19.1092C35.1789 19.4562 35.0562 19.9957 35.0562 20.7278ZM41.1738 17.6873L40.3105 17.1858C40.6745 16.6145 40.8628 16.0242 40.8755 15.4148V14.3421H42.3354V15.326C42.3354 15.7068 42.2297 16.1194 42.0181 16.5638C41.8065 17.0081 41.5251 17.3826 41.1738 17.6873ZM46.6948 21.4959L47.9644 17.2239H49.9321L47.1709 25.1585L47.0186 25.5203C46.6081 26.4174 45.931 26.866 44.9873 26.866C44.7207 26.866 44.4499 26.8258 44.1748 26.7454V25.3553L44.4541 25.3616C44.8011 25.3616 45.0592 25.3087 45.2285 25.2029C45.402 25.0971 45.5374 24.9215 45.6348 24.6761L45.8506 24.1111L43.4448 17.2239H45.4189L46.6948 21.4959ZM53.771 19.2742L54.9263 17.2239H56.8877L54.9326 20.5882L56.9702 24.0921H55.0024L53.7773 21.9339L52.5586 24.0921H50.5845L52.6221 20.5882L50.6733 17.2239H52.6411L53.771 19.2742ZM62.25 24.0921C62.1654 23.927 62.104 23.7218 62.0659 23.4763C61.6216 23.9715 61.0439 24.219 60.333 24.219C59.6602 24.219 59.1016 24.0244 58.6572 23.635C58.2171 23.2457 57.9971 22.7548 57.9971 22.1624C57.9971 21.4345 58.2658 20.8759 58.8032 20.4866C59.3449 20.0973 60.1257 19.9005 61.1455 19.8963H61.9897V19.5027C61.9897 19.1853 61.9072 18.9314 61.7422 18.741C61.5814 18.5506 61.3254 18.4554 60.9741 18.4554C60.6652 18.4554 60.4219 18.5294 60.2441 18.6775C60.0706 18.8256 59.9839 19.0288 59.9839 19.2869H58.1494C58.1494 18.8891 58.2721 18.5209 58.5176 18.1824C58.763 17.8439 59.11 17.5794 59.5586 17.3889C60.0072 17.1943 60.5107 17.097 61.0693 17.097C61.9157 17.097 62.5864 17.3107 63.0815 17.7381C63.5809 18.1612 63.8306 18.7579 63.8306 19.5281V22.5052C63.8348 23.1569 63.9258 23.6499 64.1035 23.9842V24.0921H62.25ZM60.7329 22.8162C61.0037 22.8162 61.2534 22.7569 61.4819 22.6385C61.7104 22.5157 61.8797 22.3528 61.9897 22.1497V20.969H61.3042C60.3859 20.969 59.8971 21.2864 59.8379 21.9212L59.8315 22.0291C59.8315 22.2576 59.9119 22.4459 60.0728 22.594C60.2336 22.7421 60.4536 22.8162 60.7329 22.8162ZM67.936 15.5354V17.2239H69.1104V18.5696H67.936V21.9973C67.936 22.2513 67.9847 22.4332 68.082 22.5432C68.1794 22.6533 68.3656 22.7083 68.6406 22.7083C68.8438 22.7083 69.0236 22.6935 69.1802 22.6638V24.054C68.8205 24.164 68.4502 24.219 68.0693 24.219C66.7829 24.219 66.127 23.5694 66.1016 22.2703V18.5696H65.0986V17.2239H66.1016V15.5354H67.936ZM70.3467 20.6072C70.3467 19.5366 70.5858 18.6839 71.064 18.0491C71.5464 17.4143 72.2044 17.097 73.0381 17.097C73.7067 17.097 74.259 17.3466 74.6948 17.846V14.3421H76.5356V24.0921H74.8789L74.79 23.3621C74.333 23.9334 73.7448 24.219 73.0254 24.219C72.2171 24.219 71.5675 23.9016 71.0767 23.2669C70.59 22.6279 70.3467 21.7413 70.3467 20.6072ZM72.1812 20.7405C72.1812 21.3837 72.2933 21.8767 72.5176 22.2195C72.7419 22.5623 73.0677 22.7337 73.4951 22.7337C74.0622 22.7337 74.4621 22.4946 74.6948 22.0164V19.3059C74.4663 18.8277 74.0706 18.5887 73.5078 18.5887C72.6234 18.5887 72.1812 19.3059 72.1812 20.7405ZM82.4375 24.0921C82.3529 23.927 82.2915 23.7218 82.2534 23.4763C81.8091 23.9715 81.2314 24.219 80.5205 24.219C79.8477 24.219 79.2891 24.0244 78.8447 23.635C78.4046 23.2457 78.1846 22.7548 78.1846 22.1624C78.1846 21.4345 78.4533 20.8759 78.9907 20.4866C79.5324 20.0973 80.3132 19.9005 81.333 19.8963H82.1772V19.5027C82.1772 19.1853 82.0947 18.9314 81.9297 18.741C81.7689 18.5506 81.5129 18.4554 81.1616 18.4554C80.8527 18.4554 80.6094 18.5294 80.4316 18.6775C80.2581 18.8256 80.1714 19.0288 80.1714 19.2869H78.3369C78.3369 18.8891 78.4596 18.5209 78.7051 18.1824C78.9505 17.8439 79.2975 17.5794 79.7461 17.3889C80.1947 17.1943 80.6982 17.097 81.2568 17.097C82.1032 17.097 82.7739 17.3107 83.269 17.7381C83.7684 18.1612 84.0181 18.7579 84.0181 19.5281V22.5052C84.0223 23.1569 84.1133 23.6499 84.291 23.9842V24.0921H82.4375ZM80.9204 22.8162C81.1912 22.8162 81.4409 22.7569 81.6694 22.6385C81.8979 22.5157 82.0672 22.3528 82.1772 22.1497V20.969H81.4917C80.5734 20.969 80.0846 21.2864 80.0254 21.9212L80.019 22.0291C80.019 22.2576 80.0994 22.4459 80.2603 22.594C80.4211 22.7421 80.6411 22.8162 80.9204 22.8162ZM87.6157 17.2239L87.6729 18.0174C88.1637 17.4038 88.8218 17.097 89.647 17.097C90.3748 17.097 90.9165 17.3107 91.272 17.7381C91.6274 18.1655 91.8094 18.8045 91.8179 19.6551V24.0921H89.9834V19.6995C89.9834 19.3102 89.8988 19.0288 89.7295 18.8553C89.5602 18.6775 89.2788 18.5887 88.8853 18.5887C88.369 18.5887 87.9818 18.8087 87.7236 19.2488V24.0921H85.8892V17.2239H87.6157ZM97.166 20.5945C97.166 19.9132 97.2972 19.3059 97.5596 18.7727C97.8219 18.2395 98.1986 17.8269 98.6895 17.5349C99.1846 17.243 99.758 17.097 100.41 17.097C101.336 17.097 102.092 17.3805 102.676 17.9475C103.264 18.5146 103.592 19.2848 103.66 20.2581L103.672 20.7278C103.672 21.7815 103.378 22.6279 102.79 23.2669C102.202 23.9016 101.413 24.219 100.422 24.219C99.4321 24.219 98.6408 23.9016 98.0483 23.2669C97.4601 22.6321 97.166 21.7688 97.166 20.677V20.5945ZM99.0005 20.7278C99.0005 21.3795 99.1232 21.8789 99.3687 22.2259C99.6141 22.5686 99.9653 22.74 100.422 22.74C100.867 22.74 101.214 22.5707 101.463 22.2322C101.713 21.8894 101.838 21.3435 101.838 20.5945C101.838 19.9555 101.713 19.4604 101.463 19.1092C101.214 18.7579 100.862 18.5823 100.41 18.5823C99.9611 18.5823 99.6141 18.7579 99.3687 19.1092C99.1232 19.4562 99.0005 19.9957 99.0005 20.7278ZM105.118 17.6873L104.255 17.1858C104.619 16.6145 104.807 16.0242 104.82 15.4148V14.3421H106.28V15.326C106.28 15.7068 106.174 16.1194 105.962 16.5638C105.751 17.0081 105.469 17.3826 105.118 17.6873ZM110.271 15.5354V17.2239H111.445V18.5696H110.271V21.9973C110.271 22.2513 110.32 22.4332 110.417 22.5432C110.514 22.6533 110.701 22.7083 110.976 22.7083C111.179 22.7083 111.359 22.6935 111.515 22.6638V24.054C111.155 24.164 110.785 24.219 110.404 24.219C109.118 24.219 108.462 23.5694 108.437 22.2703V18.5696H107.434V17.2239H108.437V15.5354H110.271ZM114.903 24.0921H113.062V17.2239H114.903V24.0921ZM112.955 15.4466C112.955 15.1715 113.046 14.9451 113.228 14.7674C113.414 14.5896 113.666 14.5008 113.983 14.5008C114.296 14.5008 114.546 14.5896 114.732 14.7674C114.918 14.9451 115.011 15.1715 115.011 15.4466C115.011 15.7259 114.916 15.9544 114.726 16.1321C114.539 16.3098 114.292 16.3987 113.983 16.3987C113.674 16.3987 113.424 16.3098 113.234 16.1321C113.048 15.9544 112.955 15.7259 112.955 15.4466ZM120.64 22.1941C120.64 21.9698 120.528 21.7942 120.304 21.6673C120.084 21.5361 119.728 21.4197 119.237 21.3181C117.604 20.9754 116.787 20.2814 116.787 19.2361C116.787 18.6267 117.039 18.1189 117.542 17.7127C118.05 17.3022 118.713 17.097 119.529 17.097C120.401 17.097 121.097 17.3022 121.618 17.7127C122.142 18.1232 122.405 18.6564 122.405 19.3123H120.57C120.57 19.0499 120.486 18.8341 120.316 18.6648C120.147 18.4913 119.883 18.4046 119.523 18.4046C119.214 18.4046 118.975 18.4744 118.806 18.614C118.636 18.7537 118.552 18.9314 118.552 19.1472C118.552 19.3504 118.647 19.5154 118.837 19.6424C119.032 19.7651 119.358 19.873 119.815 19.9661C120.272 20.055 120.657 20.1565 120.97 20.2708C121.939 20.6263 122.424 21.242 122.424 22.118C122.424 22.7443 122.155 23.2521 121.618 23.6414C121.08 24.0265 120.386 24.219 119.536 24.219C118.96 24.219 118.448 24.1175 118 23.9143C117.555 23.707 117.206 23.4256 116.952 23.0701C116.698 22.7104 116.571 22.3232 116.571 21.9085H118.311C118.327 22.2343 118.448 22.484 118.672 22.6575C118.897 22.831 119.197 22.9178 119.574 22.9178C119.925 22.9178 120.189 22.8522 120.367 22.721C120.549 22.5856 120.64 22.4099 120.64 22.1941ZM125.901 17.9729C126.388 17.3889 126.999 17.097 127.735 17.097C129.225 17.097 129.98 17.9624 130.001 19.6931V24.0921H128.167V19.7439C128.167 19.3504 128.082 19.0605 127.913 18.8743C127.744 18.6839 127.462 18.5887 127.069 18.5887C126.531 18.5887 126.142 18.796 125.901 19.2107V24.0921H124.066V14.3421H125.901V17.9729Z" fill="white"/>
</g>
</svg>
